<svg width="80" height="80" viewBox="0 0 80 80" fill="none" xmlns="http://www.w3.org/2000/svg">
<path d="M40 75C62.09 75 80 59.33 80 40C80 20.67 62.09 5 40 5C17.91 5 0 20.67 0 40C0 48.8 3.715 56.85 9.85 63C9.365 68.08 7.765 73.65 5.995 77.83C5.6 78.76 6.365 79.8 7.36 79.64C18.64 77.79 25.345 74.95 28.26 73.47C32.0896 74.4914 36.0366 75.0058 40 75V75Z" fill="#4DC6D7"/>
<path d="M42.5733 37.4267C41.2082 36.0621 39.3569 35.2955 37.4267 35.2955C35.4964 35.2955 33.6452 36.0621 32.28 37.4267L27.1317 42.5733C25.7665 43.9385 24.9995 45.7901 24.9995 47.7208C24.9995 49.6515 25.7665 51.5031 27.1317 52.8683C28.4969 54.2335 30.3485 55.0005 32.2792 55.0005C34.2099 55.0005 36.0615 54.2335 37.4267 52.8683L40 50.295" stroke="white" stroke-width="4" stroke-linecap="round" stroke-linejoin="round"/>
<path d="M37.4267 42.5733C38.7919 43.938 40.6431 44.7045 42.5734 44.7045C44.5036 44.7045 46.3549 43.938 47.72 42.5733L52.8684 37.4267C54.2336 36.0615 55.0005 34.2099 55.0005 32.2792C55.0005 30.3485 54.2336 28.4969 52.8684 27.1317C51.5032 25.7665 49.6516 24.9995 47.7209 24.9995C45.7902 24.9995 43.9386 25.7665 42.5734 27.1317L40 29.705" stroke="white" stroke-width="4" stroke-linecap="round" stroke-linejoin="round"/>
</svg>
